<svg xmlns:x="http://ns.adobe.com/Extensibility/1.0/" xmlns:i="http://ns.adobe.com/AdobeIllustrator/10.0/" xmlns:graph="http://ns.adobe.com/Graphs/1.0/" xmlns="http://www.w3.org/2000/svg" xmlns:xlink="http://www.w3.org/1999/xlink" version="1.1" x="0px" y="0px" viewBox="0 0 100 125" enable-background="new 0 0 100 100" xml:space="preserve"><metadata><sfw xmlns="http://ns.adobe.com/SaveForWeb/1.0/"><slices/><sliceSourceBounds height="1780.628" width="870" bottomLeftOrigin="true" x="-192" y="-1744.628"/></sfw></metadata><g><path fill="#000000" d="M75.465,91.427l-6.269-25.711c-5.864-0.056-11.194-1.839-15.86-5.309c-7.34,4.902-15.32,6.108-23.693,3.563   L16.806,87.13L5,79.703l14.468-22.055c-4.182-4.468-6.589-9.805-7.16-15.882c-0.606-6.653,0.891-12.93,4.454-18.654   c4.028-6.565,9.808-10.985,17.172-13.135c6.936-1.953,13.64-1.148,19.955,2.347c2.119-1.387,4.464-2.356,6.991-2.889   c7.021-1.82,14.033-0.771,20.377,3.226c6.408,4.206,10.682,10.155,12.718,17.688c1.736,6.521,1.264,13.01-1.398,19.293   c-2.412,5.737-6.36,10.133-11.746,13.079l8.102,25.132L75.465,91.427z M71.127,63.222l6.137,25.177l8.524-2.261l-7.944-24.654   l0.943-0.474c5.325-2.668,9.201-6.815,11.518-12.326c2.445-5.771,2.879-11.722,1.29-17.694c-1.873-6.931-5.8-12.4-11.671-16.255   c-5.739-3.606-11.948-4.589-18.479-2.898c-2.514,0.529-4.773,1.517-6.779,2.944l-0.65,0.465l-0.688-0.405   c-5.932-3.485-12.21-4.318-18.712-2.494c-6.748,1.97-12.054,6.028-15.754,12.062c-3.276,5.265-4.651,11.028-4.095,17.131   c0.544,5.819,2.952,10.896,7.147,15.09l0.71,0.708L8.44,78.952l7.475,4.701l12.56-22.663l0.975,0.33   c8.255,2.785,16.029,1.635,23.217-3.442l0.756-0.532l0.723,0.572c4.458,3.539,9.62,5.333,15.33,5.333L71.127,63.222z"/><path fill="#000000" d="M43.572,60.605L16.734,43.994l-0.101-0.539c-1.189-6.493-0.046-12.637,3.404-18.263   c3.416-5.496,8.204-9.25,14.232-11.156c5.378-1.623,10.593-1.308,15.518,0.905l1.613,0.722l-1.235,1.265   c-3.185,3.257-5.412,7.157-6.615,11.592c-1.355,4.997-1.358,10.092-0.002,15.14c1.208,4.635,3.481,8.763,6.75,12.278l1.05,1.129   l-1.329,0.775c-1.873,1.093-3.862,1.967-5.913,2.597L43.572,60.605z M18.966,42.478l24.943,15.437   c1.208-0.4,2.393-0.896,3.539-1.479c-2.995-3.551-5.104-7.629-6.283-12.146c-1.469-5.467-1.466-10.994,0.007-16.416   c1.153-4.252,3.166-8.053,5.997-11.327c-3.91-1.369-7.976-1.418-12.172-0.156c-5.436,1.722-9.769,5.12-12.86,10.097   C19.112,31.418,18.043,36.798,18.966,42.478z"/><path fill="#000000" d="M90.175,31.232c-1.756-6.392-5.441-11.467-10.969-15.097c-2.22-1.399-4.545-2.394-6.909-2.957   c-3.308-0.789-6.856-0.746-10.399,0.113c-1.95,0.455-3.769,1.224-5.34,2.239c-0.973,0.546-1.813,1.141-2.523,1.779   c-3.856,3.122-6.485,7.041-7.814,11.649c-1.333,4.603-1.377,9.323-0.135,14.035c1.291,4.769,3.794,8.929,7.435,12.353   c0.649,0.623,1.353,1.213,2.171,1.817c0.409,0.294,0.848,0.597,1.31,0.902l0.463,0.306l30.564-8.148l0.248-0.491   C91.277,43.818,91.917,37.595,90.175,31.232z M72.124,36.824c-1.58,4.731-4.686,7.114-9.038,7.114l0,0   c-0.631,0-1.295-0.048-1.985-0.146c-5.479-1.822-7.812-5.624-6.96-11.041c1.73-5.414,5.532-7.711,11.016-6.854   C70.557,27.631,72.901,31.394,72.124,36.824z"/></g><text x="0" y="115" fill="#000000" font-size="5px" font-weight="bold" font-family="'Helvetica Neue', Helvetica, Arial-Unicode, Arial, Sans-serif">Created by Claudio Gomboli</text><text x="0" y="120" fill="#000000" font-size="5px" font-weight="bold" font-family="'Helvetica Neue', Helvetica, Arial-Unicode, Arial, Sans-serif">from the Noun Project</text></svg>